<!--?xml version="1.0" encoding="utf-8"?-->
<!-- Generator: Adobe Illustrator 15.1.0, SVG Export Plug-In . SVG Version: 6.00 Build 0)  -->

<svg version="1.1" id="_x32_" xmlns="http://www.w3.org/2000/svg" xmlns:xlink="http://www.w3.org/1999/xlink" x="0px" y="0px" width="512px" height="512px" viewBox="0 0 512 512" style="width: 256px; height: 256px; opacity: 1;" xml:space="preserve">
<style type="text/css">

	.st0{fill:#4B4B4B;}

</style>
<g>
	<path class="st0" d="M504.086,199.132L316.507,11.554c-11.078-11.078-29.859-10.438-41.719,1.422l-86.297,86.297
		c-11.859,11.859-19.703,34.563-17.406,50.438l17.234,119.656l-72.625,72.625c-2.969,2.969-8.828,5.578-13.016,5.813l-22.969,1.359
		c-4.188,0.25-7.578,3.891-7.531,8.078l0.266,20.266c0.063,4.188-3.328,7.703-7.531,7.813l-21.594,0.531
		c-4.203,0.094-7.297,3.594-6.906,7.766l1.688,17.625c0.406,4.188-2.688,7.906-6.859,8.281l-24.359,2.203
		c-4.188,0.391-7.266,4.109-6.844,8.297l7.031,71.563c0.406,4.172,4.156,7.203,8.328,6.719l54.969-6.344
		c4.156-0.469,10-3.297,12.953-6.266l167.688-167.672l114.922,16.547c15.875,2.281,38.578-5.563,50.438-17.422l86.297-86.297
		C514.523,228.991,515.18,210.21,504.086,199.132z M402.21,224.007l-25.609,25.609c-5.953,5.969-15.641,5.953-21.578,0l-89-88.984
		c-5.953-5.953-5.953-15.625,0-21.578l25.625-25.625c5.953-5.969,15.625-5.938,21.578,0l88.984,89
		C408.164,208.382,408.179,218.054,402.21,224.007z" style="fill: rgb(58, 171, 210);"></path>
</g>
</svg>
