<!--?xml version="1.0" encoding="utf-8"?-->
<!-- Generator: Adobe Illustrator 18.1.1, SVG Export Plug-In . SVG Version: 6.00 Build 0)  -->

<svg version="1.1" id="_x32_" xmlns="http://www.w3.org/2000/svg" xmlns:xlink="http://www.w3.org/1999/xlink" x="0px" y="0px" viewBox="0 0 512 512" style="width: 256px; height: 256px; opacity: 1;" xml:space="preserve">
<style type="text/css">
	.st0{fill:#4B4B4B;}
</style>
<g>
	<path class="st0" d="M480.017,128.022c-9.339-25.702-24.624-50.06-43.893-70.695c-19.284-20.611-42.592-37.558-68.423-47.762h0.004
		C351.561,3.194,335.696,0.007,320.629,0c-17.027-0.016-33.083,4.142-46.67,12.365l-0.6,0.364L62.031,165.376
		c-12.335,7.708-22.432,18.768-29.218,32.18c-7.005,13.799-10.601,29.95-10.597,47.61v171.377L264.25,512l7.589-5.484
		l217.945-157.434v-168.48C489.776,162.926,486.223,145.152,480.017,128.022z M393.893,64.557
		c14.102,11.516,26.669,25.672,36.697,41.018L242.895,239.417c-6.289-9.354-13.352-18.26-21.09-26.544
		c-6.11-6.532-12.638-12.677-19.515-18.344L389.459,61.06C390.952,62.198,392.428,63.366,393.893,64.557z M292.091,41.428
		c7.708-4.544,17.182-7.184,28.539-7.2c10.196,0,21.852,2.185,34.513,7.176c7.779,3.065,15.438,7.025,22.849,11.706L191.393,186.178
		c-11.36-8.088-23.524-14.854-36.28-19.891c-8.705-3.437-17.285-5.864-25.672-7.381L292.091,41.428z M63.336,213.055
		c4.286-8.382,10.12-14.61,17.444-19.072l0.592-0.356l14.474-10.454c4.354-0.895,8.993-1.388,13.939-1.396
		c10.867,0,23.111,2.322,36.254,7.51c14.015,5.523,27.591,13.731,40.017,23.888c18.643,15.226,34.665,34.844,45.858,55.857
		c7.613,14.239,12.964,29.1,15.627,43.582L56.8,237.399C57.635,227.81,59.961,219.708,63.336,213.055z M249.457,469.366
		L56.444,393.248v-63.109l193.013,76.126V469.366z M249.457,333.848v58.299L56.444,316.029v-64.657l192.858,76.051
		c0.095,1.843,0.159,3.664,0.156,5.476h12.365l0.679,0.949H249.457z M264.701,281.944c-3.903-10.757-8.894-21.279-14.808-31.399
		l187.478-133.69c0.391,0.705,0.816,1.404,1.195,2.117c5.455,10.21,9.722,20.732,12.609,31.148
		c2.605,9.407,4.066,18.708,4.324,27.637L272.185,310.165C270.58,300.674,268.065,291.222,264.701,281.944z M351.198,283.59v53.93
		l-77.018,54.923v-53.217L351.198,283.59z M455.555,331.588L274.18,462.599v-54.035l181.376-129.335V331.588z M455.555,263.108
		l-57.692,41.132v-54.355l57.692-41.67V263.108z" style="fill: rgb(223, 86, 86);"></path>
</g>
</svg>
